<svg width="112" height="102" viewBox="0 0 112 102" fill="none" xmlns="http://www.w3.org/2000/svg">
<path d="M103.293 100.806C103.683 101.197 104.317 101.197 104.707 100.806L111.071 94.4424C111.462 94.0519 111.462 93.4187 111.071 93.0282C110.681 92.6376 110.047 92.6376 109.657 93.0282L104 98.685L98.3431 93.0282C97.9526 92.6376 97.3195 92.6376 96.9289 93.0282C96.5384 93.4187 96.5384 94.0519 96.9289 94.4424L103.293 100.806ZM1.01796 2.11351C18.0295 1.80793 43.5613 6.35364 64.8088 20.9487C86.0011 35.5059 103 60.101 103 100.099H105C105 59.4288 87.6655 34.2228 65.9412 19.3002C44.272 4.41545 18.3038 -0.197318 0.98204 0.113834L1.01796 2.11351Z" fill="black"/>
</svg>
