<svg width="257" height="289" viewBox="0 0 257 289" fill="none" xmlns="http://www.w3.org/2000/svg">
<mask id="mask0_306_1377" style="mask-type:alpha" maskUnits="userSpaceOnUse" x="0" y="0" width="257" height="289">
<path d="M10.5394 64.9723C4.71119 68.301 4.90648e-05 76.4648 4.84785e-05 83.1708L3.77135e-05 206.308C3.71273e-05 213.014 4.71117 221.153 10.5394 224.506L117.973 286.123C123.801 289.452 133.223 289.452 139.052 286.123L246.461 224.482C252.289 221.153 257 212.99 257 206.284L257 83.1465C257 76.4405 252.289 68.301 246.461 64.948L139.027 3.30657C133.199 -0.0221055 123.777 -0.0221064 117.949 3.30657L10.5151 64.948L10.5394 64.9723Z" fill="#114D97"/>
</mask>
<g mask="url(#mask0_306_1377)">
<rect x="-15.4043" y="0.810059" width="303.313" height="388.744" fill="#114D97"/>
</g>
<path d="M109.938 86.8101H111.344V81.5288H113.219L116.5 86.8101H118.164L114.812 81.4351C116.367 81.1147 117.148 80.1538 117.148 78.5679C117.148 77.5991 116.859 76.8647 116.273 76.3647C115.688 75.8569 114.883 75.6069 113.859 75.6069H109.938V86.8101ZM111.344 80.1851V76.9507H113.891C115.094 76.9507 115.695 77.4897 115.695 78.5679C115.695 79.646 115.094 80.1851 113.891 80.1851H111.344ZM120.656 85.7241C121.383 86.5288 122.344 86.9351 123.539 86.9351C124.734 86.9351 125.688 86.5288 126.414 85.7241C127.141 84.9116 127.508 83.9272 127.508 82.7788C127.508 81.6304 127.141 80.646 126.414 79.8335C125.688 79.021 124.734 78.6147 123.539 78.6147C122.344 78.6147 121.383 79.021 120.656 79.8335C119.93 80.646 119.57 81.6304 119.57 82.7788C119.57 83.9272 119.93 84.9116 120.656 85.7241ZM121.648 80.7007C122.117 80.1226 122.742 79.8335 123.531 79.8335C124.32 79.8335 124.945 80.1226 125.422 80.7007C125.891 81.271 126.133 81.9663 126.133 82.7788C126.133 83.5913 125.898 84.2866 125.422 84.8647C124.953 85.4351 124.32 85.7241 123.531 85.7241C122.742 85.7241 122.117 85.4351 121.648 84.8647C121.18 84.2866 120.945 83.5913 120.945 82.7788C120.945 81.9663 121.18 81.271 121.648 80.7007ZM129.492 76.8257H131.719V83.771C131.719 84.771 131.992 85.5522 132.531 86.1069C133.078 86.6616 133.82 86.9351 134.758 86.9351C136.445 86.9351 137.562 85.9272 137.844 84.0132L136.625 83.771C136.43 85.0757 135.805 85.7241 134.758 85.7241C133.625 85.7241 133.062 85.0757 133.062 83.771V75.6069H129.492V76.8257ZM139.641 82.7788C139.641 83.9741 139.992 84.9663 140.703 85.7554C141.414 86.5444 142.344 86.9351 143.492 86.9351C145.156 86.9429 146.375 86.1929 147.156 84.6851L146.086 84.1226C145.508 85.1929 144.641 85.7241 143.492 85.7241C142.781 85.7241 142.195 85.4819 141.75 84.9976C141.305 84.5132 141.055 83.8726 141.016 83.0679H147.32V82.5054C147.32 81.396 146.984 80.4741 146.305 79.7319C145.633 78.9897 144.695 78.6147 143.492 78.6147C142.32 78.6147 141.383 79.0132 140.688 79.8179C139.992 80.6226 139.641 81.6069 139.641 82.7788ZM141.109 81.8491C141.391 80.5913 142.234 79.8335 143.492 79.8335C144.797 79.8335 145.648 80.5679 145.891 81.8491H141.109Z" fill="#FBF3E1"/>
<path d="M95.6441 106.45V130.81H99.7241V106.45H105.844V102.81H89.5241V106.45H95.6441ZM122.278 130.81V127.17H112.958V115.65H121.398V112.01H112.958V106.45H122.158V102.81H108.878V130.81H122.278ZM128.021 130.81L130.341 120.17H135.901L138.141 130.81H142.461L136.181 102.81H130.221L123.941 130.81H128.021ZM133.221 106.37L135.301 116.81H130.981L133.141 106.37H133.221ZM149.793 130.81V109.65L154.393 116.77H156.233L160.993 109.49V130.81H165.033V102.81H160.953L155.353 111.49L149.833 102.81H145.753V130.81H149.793ZM73.2111 166.81V145.65L77.8111 152.77H79.6511L84.4111 145.49V166.81H88.4511V138.81H84.3711L78.7711 147.49L73.2511 138.81H69.1711V166.81H73.2111ZM107.454 166.81V163.17H98.1339V151.65H106.574V148.01H98.1339V142.45H107.334V138.81H94.0539V166.81H107.454ZM115.477 166.81V145.65L120.077 152.77H121.917L126.677 145.49V166.81H130.717V138.81H126.637L121.037 147.49L115.517 138.81H111.437V166.81H115.477ZM142.28 166.81C145.28 166.81 147.72 165.97 149.56 164.33C151.44 162.65 152.36 160.25 152.36 157.17C152.36 153.93 150.6 151.09 148 149.77C149.8 148.85 151 147.01 151 144.89C151 141.05 148.04 138.81 143.52 138.81H136.32V166.81H142.28ZM140.4 151.41H143.24C144.56 151.41 145.68 151.97 146.68 153.13C147.68 154.29 148.2 155.69 148.2 157.33C148.2 158.97 147.76 160.41 146.88 161.61C146 162.77 144.88 163.37 143.48 163.37H140.4V151.41ZM143.52 142.25C145.4 142.25 147 143.25 147 145.13C147 146.85 146.08 147.81 144.24 148.05H140.4V142.25H143.52ZM170.071 166.81V163.17H160.751V151.65H169.191V148.01H160.751V142.45H169.951V138.81H156.671V166.81H170.071ZM178.134 166.81V152.33H180.654L186.094 166.81H190.534L184.654 151.77C185.494 151.45 186.294 150.89 187.014 150.13C188.174 148.93 188.734 147.37 188.734 145.41C188.734 143.45 188.014 141.89 186.534 140.65C185.054 139.41 183.374 138.81 181.454 138.81H174.054V166.81H178.134ZM181.094 142.45C183.014 142.45 184.494 143.69 184.494 145.45C184.494 147.41 183.614 148.49 181.814 148.73H178.134V142.45H181.094Z" fill="#FBF3E1"/>
<path d="M50.4453 196.81H56.9375V195.466H51.8516V185.607H50.4453V196.81ZM58.8047 195.716C59.5156 196.529 60.4453 196.935 61.6094 196.935C62.7734 196.935 63.7031 196.529 64.4141 195.716C65.125 194.896 65.4844 193.919 65.4844 192.779C65.4844 191.638 65.125 190.662 64.4141 189.841C63.7031 189.021 62.7734 188.615 61.6094 188.615C60.4453 188.615 59.5156 189.021 58.8047 189.841C58.0938 190.662 57.7422 191.638 57.7422 192.779C57.7422 193.919 58.0938 194.896 58.8047 195.716ZM59.7812 190.708C60.2266 190.123 60.8359 189.833 61.6094 189.833C62.3906 189.833 63 190.123 63.4453 190.708C63.8906 191.287 64.1094 191.974 64.1094 192.779C64.1094 193.583 63.8906 194.271 63.4453 194.857C63 195.435 62.3906 195.724 61.6094 195.724C60.8359 195.724 60.2266 195.435 59.7812 194.857C59.3359 194.271 59.1172 193.583 59.1172 192.779C59.1172 191.974 59.3359 191.287 59.7812 190.708ZM67.4219 196.81H68.7656V193.755C68.7656 192.513 68.9922 191.552 69.4375 190.865C69.8828 190.177 70.4141 189.833 71.0234 189.833C71.3594 189.833 71.6719 189.912 71.9688 190.06L72.2422 188.857C71.9453 188.693 71.5781 188.615 71.1406 188.615C70.6953 188.615 70.2422 188.755 69.7891 189.037C69.3438 189.31 69 189.677 68.7656 190.123V188.748H67.4219V196.81ZM76.8906 188.615C75.7266 188.615 74.8203 189.021 74.1875 189.826C73.5547 190.63 73.2422 191.615 73.2422 192.779C73.2422 193.943 73.5625 194.927 74.1953 195.732C74.8281 196.537 75.7266 196.935 76.8906 196.935C77.7188 196.935 78.3984 196.763 78.9375 196.412C79.4766 196.06 79.9375 195.49 80.3125 194.701L79.125 194.185C78.6562 195.224 78.0234 195.724 76.8906 195.724C76.1953 195.724 75.6484 195.482 75.2578 194.99C74.875 194.498 74.6562 193.857 74.6172 193.068H80.5312V192.443C80.5312 191.373 80.2109 190.474 79.5625 189.732C78.9219 188.99 78.0312 188.615 76.8906 188.615ZM74.6953 191.849C74.9531 190.607 75.6953 189.833 76.8906 189.833C78.1172 189.833 78.8672 190.63 79.125 191.849H74.6953ZM82.5781 196.81H83.9219V193.498C83.9219 192.365 84.125 191.474 84.5391 190.818C84.9531 190.162 85.4609 189.833 86.0703 189.833C86.9375 189.833 87.3672 190.365 87.3672 191.419V196.81H88.7109V193.498C88.7109 192.365 88.9141 191.474 89.3203 190.818C89.7344 190.162 90.2422 189.833 90.8516 189.833C91.7188 189.833 92.1484 190.365 92.1484 191.419V196.81H93.4922V191.13C93.4922 189.544 92.6641 188.615 91.2188 188.615C90.0703 188.615 89.1953 189.177 88.5938 190.294C88.3438 189.232 87.5391 188.615 86.4375 188.615C85.3047 188.615 84.4609 189.154 83.9219 190.232V188.748H82.5781V196.81ZM100.336 186.505C100.336 186.779 100.43 187.013 100.625 187.208C100.82 187.404 101.055 187.498 101.344 187.498C101.633 187.498 101.875 187.404 102.07 187.208C102.266 187.013 102.359 186.779 102.359 186.505C102.359 186.216 102.266 185.974 102.07 185.779C101.875 185.583 101.633 185.482 101.344 185.482C101.055 185.482 100.82 185.583 100.625 185.779C100.43 185.974 100.336 186.216 100.336 186.505ZM100.672 196.81H102.016V188.748H100.672V196.81ZM104.969 200.076H106.312V195.849C106.461 196.107 106.773 196.349 107.242 196.583C107.719 196.818 108.195 196.935 108.672 196.935C109.82 196.935 110.703 196.552 111.32 195.794C111.938 195.037 112.25 194.029 112.25 192.779C112.25 191.529 111.938 190.521 111.32 189.763C110.703 188.998 109.82 188.615 108.672 188.615C108.188 188.615 107.727 188.724 107.281 188.951C106.836 189.169 106.516 189.435 106.312 189.74V188.748H104.969V200.076ZM108.539 195.724C107.812 195.724 107.242 195.451 106.828 194.912C106.414 194.365 106.203 193.654 106.203 192.779C106.203 191.904 106.414 191.193 106.828 190.654C107.242 190.107 107.812 189.833 108.539 189.833C109.242 189.833 109.805 190.107 110.234 190.654C110.664 191.193 110.875 191.904 110.875 192.779C110.875 193.654 110.664 194.365 110.234 194.912C109.805 195.451 109.242 195.724 108.539 195.724ZM113.719 194.763C113.953 195.38 114.32 195.904 114.828 196.318C115.336 196.732 115.969 196.935 116.727 196.935C117.547 196.935 118.203 196.708 118.68 196.263C119.156 195.81 119.398 195.185 119.398 194.38C119.398 193.943 119.273 193.568 119.016 193.255C118.758 192.935 118.445 192.693 118.078 192.521C117.031 192.013 115.648 191.685 115.656 190.857C115.664 190.224 116.078 189.833 116.633 189.833C117.125 189.833 117.617 190.099 118.109 190.63L119.016 189.849C118.438 189.029 117.656 188.615 116.68 188.615C115.969 188.615 115.391 188.826 114.961 189.248C114.531 189.669 114.312 190.201 114.312 190.841C114.312 191.318 114.438 191.732 114.695 192.068C114.953 192.404 115.266 192.654 115.625 192.826C115.992 192.998 116.352 193.154 116.711 193.287C117.078 193.419 117.383 193.576 117.641 193.771C117.898 193.966 118.023 194.193 118.023 194.458C118.023 195.302 117.594 195.724 116.727 195.724C115.906 195.724 115.289 195.193 114.859 194.138L113.719 194.763ZM121.656 194.427C121.656 196.029 122.555 196.927 124.023 196.935C125.195 196.935 126.086 196.404 126.695 195.326V196.81H128.039V188.748H126.695V192.123C126.695 193.201 126.469 194.068 126.016 194.732C125.562 195.396 125.023 195.724 124.391 195.724C123.461 195.724 123 195.177 123 194.076V188.748H121.656V194.427ZM130.781 196.81H132.125V193.498C132.125 192.365 132.328 191.474 132.742 190.818C133.156 190.162 133.664 189.833 134.273 189.833C135.141 189.833 135.57 190.365 135.57 191.419V196.81H136.914V193.498C136.914 192.365 137.117 191.474 137.523 190.818C137.938 190.162 138.445 189.833 139.055 189.833C139.922 189.833 140.352 190.365 140.352 191.419V196.81H141.695V191.13C141.695 189.544 140.867 188.615 139.422 188.615C138.273 188.615 137.398 189.177 136.797 190.294C136.547 189.232 135.742 188.615 134.641 188.615C133.508 188.615 132.664 189.154 132.125 190.232V188.748H130.781V196.81ZM151.836 188.615C150.688 188.615 149.797 188.998 149.18 189.763C148.562 190.521 148.258 191.529 148.258 192.779C148.258 194.029 148.562 195.037 149.18 195.794C149.797 196.552 150.688 196.935 151.836 196.935C152.32 196.935 152.781 196.826 153.219 196.607C153.664 196.388 153.984 196.123 154.188 195.818V196.81H155.531V185.482H154.188V189.708C154.039 189.451 153.734 189.216 153.258 188.974C152.789 188.74 152.312 188.615 151.836 188.615ZM151.969 195.724C151.266 195.724 150.703 195.451 150.273 194.912C149.844 194.365 149.633 193.654 149.633 192.779C149.633 191.904 149.844 191.193 150.273 190.654C150.703 190.107 151.266 189.833 151.969 189.833C152.695 189.833 153.266 190.107 153.68 190.654C154.094 191.193 154.305 191.904 154.305 192.779C154.305 193.654 154.094 194.365 153.68 194.912C153.266 195.451 152.695 195.724 151.969 195.724ZM158.742 195.716C159.453 196.529 160.383 196.935 161.547 196.935C162.711 196.935 163.641 196.529 164.352 195.716C165.062 194.896 165.422 193.919 165.422 192.779C165.422 191.638 165.062 190.662 164.352 189.841C163.641 189.021 162.711 188.615 161.547 188.615C160.383 188.615 159.453 189.021 158.742 189.841C158.031 190.662 157.68 191.638 157.68 192.779C157.68 193.919 158.031 194.896 158.742 195.716ZM159.719 190.708C160.164 190.123 160.773 189.833 161.547 189.833C162.328 189.833 162.938 190.123 163.383 190.708C163.828 191.287 164.047 191.974 164.047 192.779C164.047 193.583 163.828 194.271 163.383 194.857C162.938 195.435 162.328 195.724 161.547 195.724C160.773 195.724 160.164 195.435 159.719 194.857C159.273 194.271 159.055 193.583 159.055 192.779C159.055 191.974 159.273 191.287 159.719 190.708ZM167.719 196.81H169.062V185.482H167.719V196.81ZM172.336 195.716C173.047 196.529 173.977 196.935 175.141 196.935C176.305 196.935 177.234 196.529 177.945 195.716C178.656 194.896 179.016 193.919 179.016 192.779C179.016 191.638 178.656 190.662 177.945 189.841C177.234 189.021 176.305 188.615 175.141 188.615C173.977 188.615 173.047 189.021 172.336 189.841C171.625 190.662 171.273 191.638 171.273 192.779C171.273 193.919 171.625 194.896 172.336 195.716ZM173.312 190.708C173.758 190.123 174.367 189.833 175.141 189.833C175.922 189.833 176.531 190.123 176.977 190.708C177.422 191.287 177.641 191.974 177.641 192.779C177.641 193.583 177.422 194.271 176.977 194.857C176.531 195.435 175.922 195.724 175.141 195.724C174.367 195.724 173.758 195.435 173.312 194.857C172.867 194.271 172.648 193.583 172.648 192.779C172.648 191.974 172.867 191.287 173.312 190.708ZM180.953 196.81H182.297V193.755C182.297 192.513 182.523 191.552 182.969 190.865C183.414 190.177 183.945 189.833 184.555 189.833C184.891 189.833 185.203 189.912 185.5 190.06L185.773 188.857C185.477 188.693 185.109 188.615 184.672 188.615C184.227 188.615 183.773 188.755 183.32 189.037C182.875 189.31 182.531 189.677 182.297 190.123V188.748H180.953V196.81ZM191.188 194.763C191.422 195.38 191.789 195.904 192.297 196.318C192.805 196.732 193.438 196.935 194.195 196.935C195.016 196.935 195.672 196.708 196.148 196.263C196.625 195.81 196.867 195.185 196.867 194.38C196.867 193.943 196.742 193.568 196.484 193.255C196.227 192.935 195.914 192.693 195.547 192.521C194.5 192.013 193.117 191.685 193.125 190.857C193.133 190.224 193.547 189.833 194.102 189.833C194.594 189.833 195.086 190.099 195.578 190.63L196.484 189.849C195.906 189.029 195.125 188.615 194.148 188.615C193.438 188.615 192.859 188.826 192.43 189.248C192 189.669 191.781 190.201 191.781 190.841C191.781 191.318 191.906 191.732 192.164 192.068C192.422 192.404 192.734 192.654 193.094 192.826C193.461 192.998 193.82 193.154 194.18 193.287C194.547 193.419 194.852 193.576 195.109 193.771C195.367 193.966 195.492 194.193 195.492 194.458C195.492 195.302 195.062 195.724 194.195 195.724C193.375 195.724 192.758 195.193 192.328 194.138L191.188 194.763ZM198.898 186.505C198.898 186.779 198.992 187.013 199.188 187.208C199.383 187.404 199.617 187.498 199.906 187.498C200.195 187.498 200.438 187.404 200.633 187.208C200.828 187.013 200.922 186.779 200.922 186.505C200.922 186.216 200.828 185.974 200.633 185.779C200.438 185.583 200.195 185.482 199.906 185.482C199.617 185.482 199.383 185.583 199.188 185.779C198.992 185.974 198.898 186.216 198.898 186.505ZM199.234 196.81H200.578V188.748H199.234V196.81ZM202.461 189.958H203.852V194.279C203.852 195.154 204.062 195.818 204.484 196.263C204.906 196.708 205.477 196.935 206.188 196.935C206.711 196.935 207.148 196.833 207.5 196.63L207.18 195.466C206.93 195.638 206.625 195.724 206.273 195.724C205.586 195.724 205.195 195.248 205.195 194.396V189.958H207.312V188.748H205.195V185.482L203.852 186.333V188.748H202.461V189.958ZM60.6406 216.49C60.6406 217.31 60.875 217.927 61.3438 218.333C61.8125 218.732 62.4062 218.935 63.1328 218.935C64.2344 218.943 65.0781 218.521 65.6641 217.677L65.8828 218.81H66.9453V213.662C66.9453 212.638 66.6641 211.873 66.0938 211.373C65.5234 210.865 64.7734 210.615 63.8359 210.615C63.0781 210.615 62.4375 210.81 61.9141 211.208C61.3906 211.607 61.0781 212.146 60.9766 212.826L62.1562 213.099C62.3359 212.31 62.9844 211.833 63.8359 211.833C65.0156 211.833 65.6016 212.388 65.6016 213.498V213.849H64.2891C63.1562 213.849 62.2656 214.076 61.6172 214.529C60.9688 214.982 60.6406 215.638 60.6406 216.49ZM62.0156 216.49C62.0156 215.576 62.7891 215.068 64.1562 215.068H65.6016V215.255C65.6016 216.099 65.375 216.724 64.9297 217.123C64.4844 217.521 63.9531 217.724 63.3438 217.724C62.4922 217.724 62.0156 217.263 62.0156 216.49ZM69.4922 218.81H70.8359V215.498C70.8359 214.365 71.0391 213.474 71.4531 212.818C71.8672 212.162 72.375 211.833 72.9844 211.833C73.8516 211.833 74.2812 212.365 74.2812 213.419V218.81H75.625V215.498C75.625 214.365 75.8281 213.474 76.2344 212.818C76.6484 212.162 77.1562 211.833 77.7656 211.833C78.6328 211.833 79.0625 212.365 79.0625 213.419V218.81H80.4062V213.13C80.4062 211.544 79.5781 210.615 78.1328 210.615C76.9844 210.615 76.1094 211.177 75.5078 212.294C75.2578 211.232 74.4531 210.615 73.3516 210.615C72.2188 210.615 71.375 211.154 70.8359 212.232V210.748H69.4922V218.81ZM85.8672 210.615C84.7031 210.615 83.7969 211.021 83.1641 211.826C82.5312 212.63 82.2188 213.615 82.2188 214.779C82.2188 215.943 82.5391 216.927 83.1719 217.732C83.8047 218.537 84.7031 218.935 85.8672 218.935C86.6953 218.935 87.375 218.763 87.9141 218.412C88.4531 218.06 88.9141 217.49 89.2891 216.701L88.1016 216.185C87.6328 217.224 87 217.724 85.8672 217.724C85.1719 217.724 84.625 217.482 84.2344 216.99C83.8516 216.498 83.6328 215.857 83.5938 215.068H89.5078V214.443C89.5078 213.373 89.1875 212.474 88.5391 211.732C87.8984 210.99 87.0078 210.615 85.8672 210.615ZM83.6719 213.849C83.9297 212.607 84.6719 211.833 85.8672 211.833C87.0938 211.833 87.8438 212.63 88.1016 213.849H83.6719ZM90.5938 211.958H91.9844V216.279C91.9844 217.154 92.1953 217.818 92.6172 218.263C93.0391 218.708 93.6094 218.935 94.3203 218.935C94.8438 218.935 95.2812 218.833 95.6328 218.63L95.3125 217.466C95.0625 217.638 94.7578 217.724 94.4062 217.724C93.7188 217.724 93.3281 217.248 93.3281 216.396V211.958H95.4453V210.748H93.3281V207.482L91.9844 208.333V210.748H90.5938V211.958ZM97.3281 220.521H98.3516L100.211 217.052H98.3828L97.3281 220.521ZM110.148 210.615C108.969 210.615 108.062 211.021 107.43 211.826C106.797 212.63 106.484 213.615 106.484 214.779C106.484 215.943 106.805 216.927 107.438 217.732C108.07 218.537 108.977 218.935 110.148 218.935C111.75 218.943 112.875 218.201 113.523 216.716L112.352 216.232C111.93 217.224 111.195 217.724 110.148 217.724C109.398 217.724 108.82 217.451 108.438 216.904C108.047 216.349 107.859 215.646 107.859 214.779C107.859 213.912 108.055 213.208 108.445 212.662C108.836 212.107 109.406 211.833 110.148 211.833C111.188 211.841 111.922 212.333 112.352 213.326L113.523 212.841C112.875 211.357 111.75 210.615 110.148 210.615ZM115.938 217.716C116.648 218.529 117.578 218.935 118.742 218.935C119.906 218.935 120.836 218.529 121.547 217.716C122.258 216.896 122.617 215.919 122.617 214.779C122.617 213.638 122.258 212.662 121.547 211.841C120.836 211.021 119.906 210.615 118.742 210.615C117.578 210.615 116.648 211.021 115.938 211.841C115.227 212.662 114.875 213.638 114.875 214.779C114.875 215.919 115.227 216.896 115.938 217.716ZM116.914 212.708C117.359 212.123 117.969 211.833 118.742 211.833C119.523 211.833 120.133 212.123 120.578 212.708C121.023 213.287 121.242 213.974 121.242 214.779C121.242 215.583 121.023 216.271 120.578 216.857C120.133 217.435 119.523 217.724 118.742 217.724C117.969 217.724 117.359 217.435 116.914 216.857C116.469 216.271 116.25 215.583 116.25 214.779C116.25 213.974 116.469 213.287 116.914 212.708ZM124.883 218.81H126.227V215.435C126.227 214.357 126.453 213.49 126.906 212.826C127.359 212.162 127.898 211.833 128.531 211.833C129.461 211.833 129.93 212.38 129.93 213.482V218.81H131.273V213.13C131.273 211.529 130.367 210.615 128.898 210.615C127.727 210.615 126.836 211.154 126.227 212.232V210.748H124.883V218.81ZM133.32 216.763C133.555 217.38 133.922 217.904 134.43 218.318C134.938 218.732 135.57 218.935 136.328 218.935C137.148 218.935 137.805 218.708 138.281 218.263C138.758 217.81 139 217.185 139 216.38C139 215.943 138.875 215.568 138.617 215.255C138.359 214.935 138.047 214.693 137.68 214.521C136.633 214.013 135.25 213.685 135.258 212.857C135.266 212.224 135.68 211.833 136.234 211.833C136.727 211.833 137.219 212.099 137.711 212.63L138.617 211.849C138.039 211.029 137.258 210.615 136.281 210.615C135.57 210.615 134.992 210.826 134.562 211.248C134.133 211.669 133.914 212.201 133.914 212.841C133.914 213.318 134.039 213.732 134.297 214.068C134.555 214.404 134.867 214.654 135.227 214.826C135.594 214.998 135.953 215.154 136.312 215.287C136.68 215.419 136.984 215.576 137.242 215.771C137.5 215.966 137.625 216.193 137.625 216.458C137.625 217.302 137.195 217.724 136.328 217.724C135.508 217.724 134.891 217.193 134.461 216.138L133.32 216.763ZM144.398 210.615C143.234 210.615 142.328 211.021 141.695 211.826C141.062 212.63 140.75 213.615 140.75 214.779C140.75 215.943 141.07 216.927 141.703 217.732C142.336 218.537 143.234 218.935 144.398 218.935C145.227 218.935 145.906 218.763 146.445 218.412C146.984 218.06 147.445 217.49 147.82 216.701L146.633 216.185C146.164 217.224 145.531 217.724 144.398 217.724C143.703 217.724 143.156 217.482 142.766 216.99C142.383 216.498 142.164 215.857 142.125 215.068H148.039V214.443C148.039 213.373 147.719 212.474 147.07 211.732C146.43 210.99 145.539 210.615 144.398 210.615ZM142.203 213.849C142.461 212.607 143.203 211.833 144.398 211.833C145.625 211.833 146.375 212.63 146.633 213.849H142.203ZM153.477 210.615C152.297 210.615 151.391 211.021 150.758 211.826C150.125 212.63 149.812 213.615 149.812 214.779C149.812 215.943 150.133 216.927 150.766 217.732C151.398 218.537 152.305 218.935 153.477 218.935C155.078 218.943 156.203 218.201 156.852 216.716L155.68 216.232C155.258 217.224 154.523 217.724 153.477 217.724C152.727 217.724 152.148 217.451 151.766 216.904C151.375 216.349 151.188 215.646 151.188 214.779C151.188 213.912 151.383 213.208 151.773 212.662C152.164 212.107 152.734 211.833 153.477 211.833C154.516 211.841 155.25 212.333 155.68 213.326L156.852 212.841C156.203 211.357 155.078 210.615 153.477 210.615ZM157.656 211.958H159.047V216.279C159.047 217.154 159.258 217.818 159.68 218.263C160.102 218.708 160.672 218.935 161.383 218.935C161.906 218.935 162.344 218.833 162.695 218.63L162.375 217.466C162.125 217.638 161.82 217.724 161.469 217.724C160.781 217.724 160.391 217.248 160.391 216.396V211.958H162.508V210.748H160.391V207.482L159.047 208.333V210.748H157.656V211.958ZM167.492 210.615C166.328 210.615 165.422 211.021 164.789 211.826C164.156 212.63 163.844 213.615 163.844 214.779C163.844 215.943 164.164 216.927 164.797 217.732C165.43 218.537 166.328 218.935 167.492 218.935C168.32 218.935 169 218.763 169.539 218.412C170.078 218.06 170.539 217.49 170.914 216.701L169.727 216.185C169.258 217.224 168.625 217.724 167.492 217.724C166.797 217.724 166.25 217.482 165.859 216.99C165.477 216.498 165.258 215.857 165.219 215.068H171.133V214.443C171.133 213.373 170.812 212.474 170.164 211.732C169.523 210.99 168.633 210.615 167.492 210.615ZM165.297 213.849C165.555 212.607 166.297 211.833 167.492 211.833C168.719 211.833 169.469 212.63 169.727 213.849H165.297ZM172.219 211.958H173.609V216.279C173.609 217.154 173.82 217.818 174.242 218.263C174.664 218.708 175.234 218.935 175.945 218.935C176.469 218.935 176.906 218.833 177.258 218.63L176.938 217.466C176.688 217.638 176.383 217.724 176.031 217.724C175.344 217.724 174.953 217.248 174.953 216.396V211.958H177.07V210.748H174.953V207.482L173.609 208.333V210.748H172.219V211.958ZM178.727 216.427C178.727 218.029 179.625 218.927 181.094 218.935C182.266 218.935 183.156 218.404 183.766 217.326V218.81H185.109V210.748H183.766V214.123C183.766 215.201 183.539 216.068 183.086 216.732C182.633 217.396 182.094 217.724 181.461 217.724C180.531 217.724 180.07 217.177 180.07 216.076V210.748H178.727V216.427ZM187.789 218.81H189.133V215.755C189.133 214.513 189.359 213.552 189.805 212.865C190.25 212.177 190.781 211.833 191.391 211.833C191.727 211.833 192.039 211.912 192.336 212.06L192.609 210.857C192.312 210.693 191.945 210.615 191.508 210.615C191.062 210.615 190.609 210.755 190.156 211.037C189.711 211.31 189.367 211.677 189.133 212.123V210.748H187.789V218.81ZM193.805 217.865C193.805 218.435 194.242 218.873 194.812 218.873C195.094 218.873 195.328 218.779 195.523 218.583C195.719 218.388 195.82 218.154 195.82 217.865C195.82 217.591 195.719 217.349 195.523 217.154C195.328 216.958 195.086 216.857 194.812 216.857C194.523 216.857 194.289 216.958 194.094 217.154C193.898 217.349 193.805 217.591 193.805 217.865Z" fill="#FBF3E1"/>
</svg>
