<svg width="26" height="26" viewBox="0 0 26 26" fill="none" xmlns="http://www.w3.org/2000/svg">
<path d="M18.0935 13.2667L25.3334 6.02684C26.2219 5.13841 26.2219 3.69796 25.3334 2.8088L23.7244 1.19977C22.836 0.311338 21.3955 0.311338 20.5064 1.19977L13.2665 8.43965L6.0266 1.19977C5.13816 0.311338 3.69771 0.311338 2.80855 1.19977L1.19953 2.8088C0.311094 3.69723 0.311094 5.13768 1.19953 6.02684L8.43941 13.2667L1.19953 20.5066C0.311094 21.395 0.311094 22.8355 1.19953 23.7246L2.80855 25.3337C3.69699 26.2221 5.13816 26.2221 6.0266 25.3337L13.2665 18.0938L20.5064 25.3337C21.3948 26.2221 22.836 26.2221 23.7244 25.3337L25.3334 23.7246C26.2219 22.8362 26.2219 21.3958 25.3334 20.5066L18.0935 13.2667Z" fill="black"/>
</svg>
