<svg width="932" height="173" viewBox="0 0 932 173" fill="none" xmlns="http://www.w3.org/2000/svg">
<path d="M0.5 169.893V3.14197H26.456L82.0195 118.925V3.14197H106.745V169.893H80.7891L25.2257 54.3513V169.893H0.5Z" fill="#FBF3E1"/>
<path d="M130.995 104.919L155.244 106.925L154.927 108.571C151.871 133.453 157.784 147.299 172.508 149.827C184.296 151.874 194.813 143.285 197.433 128.998C199.893 115.634 194.853 103.634 182.073 93.4406L168.817 82.9258C154.927 71.809 147.068 54.9533 150.402 36.8936C155.165 10.8876 174.969 -2.11541 200.727 2.33932C226.762 6.83419 239.621 24.8136 234.462 52.9467C234.382 53.4282 234.224 54.3513 233.747 55.475L211.403 54.0302L211.919 51.221C214.856 35.2883 208.426 25.4558 196.877 23.4491C185.566 21.4826 177.35 26.8604 174.929 40.2246C173.263 49.3748 177.152 58.0435 186.677 65.7089L200.766 77.1065C218.348 91.0326 226.167 110.778 222.635 130.242C219.976 144.77 213.744 155.807 203.664 163.231C193.821 170.736 182.192 173.305 168.937 171.017C138.337 165.72 125.676 143.687 131.034 104.919" fill="#FBF3E1"/>
<path d="M321.934 148.222H335.15C346.422 148.222 355.709 142.523 363.051 131.085C370.632 119.406 374.323 104.397 374.323 85.8153C374.323 67.2339 370.393 52.4651 362.575 41.5088C354.994 30.3118 345.43 24.8538 334.436 24.8538H321.934V148.262V148.222ZM296.97 169.893V3.14197H334.436C352.812 3.14197 368.449 10.7672 381.189 26.0176C393.929 41.268 400.279 61.4949 400.279 86.5377C400.279 111.581 393.929 131.807 381.427 147.058C368.925 162.308 353.526 169.933 335.15 169.933H296.97V169.893Z" fill="#FBF3E1"/>
<path d="M420.673 169.893V3.14197H501.954V24.8136H445.676V57.9231H497.311V79.5948H445.676V148.222H502.708V169.893H420.673Z" fill="#FBF3E1"/>
<path d="M518.935 113.346L543.184 111.219V112.905C544.653 137.908 552.987 150.549 567.91 150.549C579.896 150.549 588.706 140.315 588.706 125.787C588.706 112.223 581.602 101.266 567.156 93.4004L552.233 85.2936C536.556 76.7052 525.801 61.4949 525.801 43.1542C525.801 16.7068 542.946 0.533325 569.14 0.533325C595.334 0.533325 611.487 16.0245 611.487 44.599C611.487 45.0806 611.487 46.0438 611.249 47.2076L588.984 49.5755V46.726C588.984 30.5124 580.888 21.9642 569.14 21.9642C557.393 21.9642 550.526 28.6262 550.526 42.2312C550.526 51.5018 555.924 59.3678 566.68 65.3476L582.595 74.1768C602.439 84.8922 613.67 102.992 613.67 122.777C613.67 137.546 609.503 149.466 600.93 158.496C592.596 167.566 581.602 172.06 568.108 172.06C537.032 172.06 520.602 152.516 518.895 113.467" fill="#FBF3E1"/>
<path d="M667.026 5.22241H642.063V171.974H667.026V5.22241Z" fill="#FBF3E1"/>
<path d="M709.211 147.981C699.408 131.767 694.527 111.059 694.527 85.5745C694.527 60.0902 699.408 39.5824 709.45 24.1313C719.491 8.39933 733.421 0.533325 751.797 0.533325C766.243 0.533325 777.753 5.30912 786.325 14.5798C794.898 23.8906 801.01 35.529 804.185 49.6156L779.975 56.0368C775.094 36.0106 767.474 23.409 751.836 23.409C741.319 23.409 733.223 29.1479 728.103 40.7864C722.944 52.2242 720.284 67.2339 720.284 86.0561C720.284 104.878 722.745 120.129 727.865 131.807C733.024 143.486 740.843 149.426 751.598 149.426C767.037 149.426 776.8 135.138 778.785 115.353H747.193V94.8452H804.741V101.266C804.741 123.42 799.859 140.797 789.818 153.439C780.015 165.84 767.315 172.02 751.638 172.02C733.262 172.02 719.094 163.914 709.291 147.941" fill="#FBF3E1"/>
<path d="M825.255 169.893V3.14197H851.211L906.774 118.925V3.14197H931.5V169.893H905.544L849.981 54.3513V169.893H825.255Z" fill="#FBF3E1"/>
</svg>
