<svg width="931" height="172" viewBox="0 0 931 172" fill="none" xmlns="http://www.w3.org/2000/svg">
<path d="M0 169.36V2.60864H25.956L81.5195 118.391V2.60864H106.245V169.36H80.2891L24.7257 53.818V169.36H0Z" fill="black"/>
<path d="M130.495 104.385L154.744 106.392L154.427 108.037C151.371 132.92 157.284 146.765 172.008 149.294C183.796 151.34 194.313 142.752 196.933 128.465C199.393 115.101 194.353 103.101 181.573 92.9073L168.317 82.3925C154.427 71.2758 146.568 54.42 149.902 36.3603C154.665 10.3543 174.469 -2.64867 200.227 1.80606C226.262 6.30092 239.121 24.2804 233.962 52.4134C233.882 52.895 233.723 53.818 233.247 54.9418L210.903 53.497L211.419 50.6877C214.356 34.755 207.926 24.9225 196.377 22.9159C185.066 20.9494 176.85 26.3271 174.429 39.6913C172.762 48.8416 176.652 57.5102 186.177 65.1756L200.266 76.5733C217.848 90.4993 225.667 110.245 222.135 129.709C219.475 144.237 213.244 155.273 203.164 162.698C193.321 170.203 181.692 172.771 168.436 170.484C137.837 165.186 125.176 143.153 130.534 104.385" fill="black"/>
<path d="M321.434 147.688H334.65C345.922 147.688 355.209 141.99 362.551 130.552C370.132 118.873 373.823 103.863 373.823 85.282C373.823 66.7006 369.893 51.9317 362.075 40.9755C354.494 29.7785 344.93 24.3204 333.936 24.3204H321.434V147.728V147.688ZM296.47 169.36V2.60864H333.936C352.312 2.60864 367.949 10.2339 380.689 25.4843C393.428 40.7347 399.779 60.9616 399.779 86.0044C399.779 111.047 393.429 131.274 380.927 146.525C368.425 161.775 353.026 169.4 334.65 169.4H296.47V169.36Z" fill="black"/>
<path d="M420.173 169.36V2.60864H501.454V24.2803H445.176V57.3898H496.811V79.0614H445.176V147.688H502.208V169.36H420.173Z" fill="black"/>
<path d="M518.435 112.813L542.684 110.686V112.372C544.153 137.374 552.487 150.016 567.41 150.016C579.396 150.016 588.206 139.782 588.206 125.254C588.206 111.689 581.102 100.733 566.656 92.8671L551.733 84.7603C536.056 76.1719 525.301 60.9616 525.301 42.6209C525.301 16.1735 542.446 3.05176e-05 568.64 3.05176e-05C594.834 3.05176e-05 610.987 15.4912 610.987 44.0657C610.987 44.5473 610.987 45.5105 610.749 46.6743L588.484 49.0422V46.1928C588.484 29.9791 580.388 21.4309 568.64 21.4309C556.893 21.4309 550.026 28.0929 550.026 41.6979C550.026 50.9685 555.424 58.8346 566.18 64.8143L582.095 73.6435C601.939 84.3589 613.17 102.459 613.17 122.244C613.17 137.013 609.003 148.932 600.43 157.962C592.096 167.032 581.102 171.527 567.608 171.527C536.532 171.527 520.102 151.983 518.395 112.933" fill="black"/>
<path d="M666.526 4.68912H641.563V171.44H666.526V4.68912Z" fill="black"/>
<path d="M708.712 147.448C698.909 131.234 694.027 110.525 694.027 85.0412C694.027 59.557 698.909 39.0491 708.95 23.5981C718.991 7.86604 732.921 3.05176e-05 751.297 3.05176e-05C765.743 3.05176e-05 777.253 4.77582 785.826 14.0465C794.398 23.3573 800.51 34.9957 803.685 49.0823L779.475 55.5035C774.594 35.4773 766.974 22.8757 751.337 22.8757C740.819 22.8757 732.723 28.6146 727.603 40.2531C722.444 51.6909 719.784 66.7006 719.784 85.5228C719.784 104.345 722.245 119.595 727.365 131.274C732.524 142.953 740.343 148.892 751.098 148.892C766.537 148.892 776.3 134.605 778.285 114.82H746.693V94.3119H804.241V100.733C804.241 122.886 799.359 140.264 789.318 152.906C779.515 165.307 766.815 171.487 751.138 171.487C732.762 171.487 718.594 163.38 708.791 147.407" fill="black"/>
<path d="M824.755 169.36V2.60864H850.711L906.274 118.391V2.60864H931V169.36H905.044L849.481 53.818V169.36H824.755Z" fill="black"/>
</svg>
