<?xml version="1.0" encoding="UTF-8"?><svg id="Layer_2" xmlns="http://www.w3.org/2000/svg" viewBox="0 0 105.83 118.44"><defs><style>.cls-1{fill:#fbf3e1;}</style></defs><g id="Layer_1-2"><g><path d="M101.49,92.05c2.4-1.37,4.34-4.73,4.34-7.49V33.88c0-2.76-1.94-6.11-4.34-7.49L57.25,1.03c-2.4-1.37-6.28-1.37-8.68,0L4.34,26.4c-2.4,1.37-4.34,4.73-4.34,7.49v50.68c0,2.76,1.94,6.11,4.34,7.49l44.24,25.37c2.4,1.37,6.28,1.37,8.68,0l44.24-25.37Z"/><polygon class="cls-1" points="16.27 76.59 16.27 41.79 21.54 41.79 32.83 65.96 32.83 41.79 37.85 41.79 37.85 76.59 32.58 76.59 21.29 52.48 21.29 76.59 16.27 76.59"/><path class="cls-1" d="M43.43,63.04l4.92,.42-.06,.34c-.62,5.19,.58,8.08,3.57,8.61,2.4,.43,4.53-1.36,5.07-4.35,.5-2.79-.52-5.29-3.12-7.42l-2.69-2.2c-2.82-2.32-4.41-5.84-3.74-9.6,.97-5.43,4.99-8.15,10.22-7.22,5.29,.94,7.9,4.69,6.86,10.56-.02,.1-.05,.29-.14,.53l-4.54-.3,.11-.59c.59-3.33-.71-5.38-3.06-5.8-2.3-.41-3.96,.71-4.46,3.5-.34,1.91,.45,3.72,2.39,5.32l2.86,2.38c3.57,2.91,5.16,7.03,4.44,11.09-.54,3.03-1.81,5.33-3.85,6.89-2,1.56-4.36,2.1-7.05,1.62-6.22-1.11-8.78-5.7-7.69-13.79"/><path class="cls-1" d="M73.65,72.07h2.68c2.29,0,4.18-1.19,5.67-3.58,1.54-2.43,2.29-5.57,2.29-9.45s-.8-6.96-2.39-9.25c-1.54-2.34-3.48-3.48-5.72-3.48h-2.53v25.75Zm-5.07,4.52V41.79h7.61c3.73,0,6.91,1.59,9.5,4.77,2.58,3.18,3.88,7.41,3.88,12.63s-1.29,9.45-3.83,12.63c-2.54,3.18-5.67,4.77-9.4,4.77h-7.75Z"/></g></g></svg>