<svg width="162" height="185" viewBox="0 0 162 185" fill="none" xmlns="http://www.w3.org/2000/svg">
<g clip-path="url(#clip0_313_996)">
<g clip-path="url(#clip1_313_996)">
<path d="M81 185C79.803 185 78.6188 184.726 77.6892 184.192L3.3108 141.22C1.45166 140.139 0 137.586 0 135.41V49.583C0 47.4337 1.48986 44.8286 3.3108 43.7735L77.6892 0.801091C79.5483 -0.26703 82.4517 -0.26703 84.3108 0.801091L158.689 43.7735C160.523 44.8286 162 47.4337 162 49.583V135.397C162 137.547 160.51 140.152 158.689 141.207L84.3108 184.179C83.3812 184.713 82.1842 184.987 81 184.987V185ZM81 0.735962C79.9304 0.735962 78.8607 0.970428 78.0457 1.43936L3.66735 44.4117C2.03742 45.3496 0.713095 47.6682 0.713095 49.583V135.397C0.713095 137.312 2.03742 139.631 3.66735 140.569L78.0457 183.541C79.6757 184.479 82.3243 184.479 83.9543 183.541L158.333 140.569C159.963 139.631 161.287 137.312 161.287 135.397V49.583C161.287 47.6682 159.963 45.3496 158.333 44.4117L83.967 1.43936C83.152 0.970428 82.0824 0.735962 81.0127 0.735962H81Z" fill="black"/>
<path d="M43.3936 68.3402V50.5078H45.4563L51.5808 64.1719V50.5078H53.5034V68.3402H51.4407L45.3162 54.6891V68.3402H43.3936Z" fill="black"/>
<path d="M55.719 68.3402L59.6025 50.5078H62.5183L66.3 68.3402H64.2627L62.773 61.0978H59.2333L57.6671 68.3402H55.719ZM61.0286 52.3445L59.5643 59.4305H62.4801L61.0795 52.3445H61.0286Z" fill="black"/>
<path d="M65.8798 52.2924V50.5078H75.4421V52.2924H71.6605V68.3402H69.7123V52.2924H65.8798Z" fill="black"/>
<path d="M77.1101 50.5078H79.0582V62.5828C79.0582 65.1619 80.1787 66.6599 81.9486 66.6599C83.7185 66.6599 84.8389 65.1619 84.8389 62.5828V50.5078H86.7871V62.5828C86.7871 66.2561 84.8899 68.5486 81.974 68.5486C79.0582 68.5486 77.1228 66.3342 77.1228 62.5828V50.5078H77.1101Z" fill="black"/>
<path d="M90.0339 68.3402V50.5078H94.0702C95.2417 50.5078 96.2603 50.8595 97.0879 51.602C97.941 52.3445 98.3612 53.2823 98.3612 54.4807C98.3612 55.6791 98.0429 56.5909 97.3681 57.2813C96.8969 57.8153 96.324 58.167 95.6746 58.3754L99.4308 68.3402H97.2917L93.6755 58.5578H91.9821V68.3402H90.0339ZM91.9821 52.2924V56.8254H94.5668C95.7382 56.5648 96.3367 55.7833 96.3367 54.4547C96.3367 53.2042 95.2926 52.2924 93.9684 52.2924H91.9821Z" fill="black"/>
<path d="M99.9529 68.3402L103.836 50.5078H106.752L110.534 68.3402H108.497L107.007 61.0978H103.467L101.901 68.3402H99.9529ZM105.262 52.3445L103.798 59.4305H106.714L105.313 52.3445H105.262Z" fill="black"/>
<path d="M112.749 68.3402V50.5078H114.698V66.5557H120.325V68.3402H112.749Z" fill="black"/>
<path d="M33.7292 95.5644L35.6519 95.382V95.5123C35.8302 98.391 36.7724 99.8499 38.4913 99.8499C39.1662 99.8499 39.7392 99.5763 40.1848 99.0032C40.6305 98.4691 40.8596 97.7527 40.8596 96.8669C40.8596 95.1085 39.9683 93.8319 38.6441 93.1025L37.1799 92.2558C35.6646 91.37 34.5187 89.833 34.5187 87.8009C34.5187 86.3942 34.8879 85.326 35.6646 84.5445C36.3904 83.7499 37.3836 83.3722 38.6059 83.3722C39.8283 83.3461 40.796 83.802 41.5218 84.7268C42.2475 85.6126 42.5913 86.7198 42.5913 88.0094L42.5658 88.2699L40.7705 88.4783V88.1526C40.7705 87.1887 40.5668 86.4463 40.1721 85.9382C39.8028 85.4302 39.2808 85.1697 38.6059 85.1697C37.2817 85.1697 36.4668 86.0424 36.4668 87.7749C36.4668 88.9472 37.0653 89.8851 38.2367 90.5755L39.7774 91.4873C41.7 92.6335 42.846 94.5223 42.846 96.5283C42.846 98.0783 42.4512 99.3288 41.6236 100.28C40.796 101.218 39.7774 101.687 38.5041 101.687C35.5882 101.687 33.9966 99.6545 33.742 95.6034L33.7292 95.5644Z" fill="black"/>
<path d="M45.609 101.439V83.6062H53.4015V85.3907H47.5444V89.3897H52.8795V91.2003H47.5444V99.6541H53.4524V101.439H45.609Z" fill="black"/>
<path d="M56.0372 101.439V83.6062H57.9854V99.6541H63.6133V101.439H56.0372Z" fill="black"/>
<path d="M65.5996 101.439V83.6062H73.3921V85.3907H67.535V89.3897H72.8701V91.2003H67.535V99.6541H73.443V101.439H65.5996Z" fill="black"/>
<path d="M76.4861 98.899C75.684 97.401 75.2893 95.2518 75.2638 92.5033C75.2638 89.7288 75.7094 87.5144 76.6389 85.8471C77.5557 84.1668 78.9309 83.3201 80.7516 83.3201C81.7193 83.3201 82.6743 83.6457 83.5656 84.31C84.6352 85.0786 85.3609 86.4984 85.7557 88.5695L83.8585 88.9733C83.3619 86.7068 82.4578 85.1958 80.8917 85.1958C79.3256 85.1958 78.3706 86.2118 77.8995 87.7749C77.4793 89.2078 77.2501 90.7057 77.2501 92.3079C77.2501 97.2708 78.3961 99.7717 80.7135 99.7717C82.5852 99.7717 83.7057 97.9351 84.0495 94.2618L85.9976 94.4181C85.7429 96.9972 85.1445 98.8469 84.1768 99.9671C83.2091 101.061 82.0631 101.621 80.7135 101.621C78.8927 101.621 77.4793 100.71 76.4734 98.873L76.4861 98.899Z" fill="black"/>
<path d="M86.8507 85.3907V83.6062H96.4131V85.3907H92.6314V101.439H90.6833V85.3907H86.8507Z" fill="black"/>
<path d="M98.4376 101.439V83.6062H100.386V101.439H98.4376Z" fill="black"/>
<path d="M105.632 84.5706C106.459 83.7499 107.503 83.3461 108.764 83.3201C110.61 83.3201 111.973 84.1667 112.902 85.821C113.819 87.4753 114.277 89.6637 114.277 92.3991C114.277 95.1345 113.806 97.3359 112.877 99.0683C111.96 100.775 110.585 101.647 108.738 101.647C106.892 101.647 105.555 100.775 104.626 99.0683C103.696 97.3619 103.251 95.0954 103.251 92.3209C103.225 88.7258 104.027 86.1337 105.619 84.5706H105.632ZM108.751 99.7587C110.05 99.7587 110.992 98.886 111.514 97.4662C112.011 96.1115 112.265 94.379 112.265 92.3209C112.265 90.4843 112.036 88.9082 111.616 87.5795C111.145 86.1467 110.152 85.2349 108.777 85.2349C107.402 85.2349 106.459 86.1467 105.963 87.6056C105.492 88.9603 105.262 90.5364 105.262 92.3209C105.237 95.8379 105.861 98.1044 107.083 99.1465C107.554 99.5503 108.102 99.7587 108.751 99.7587Z" fill="black"/>
<path d="M117.168 101.439V83.6062H119.23L125.355 97.2703V83.6062H127.277V101.439H125.215L119.09 87.7745V101.439H117.168Z" fill="black"/>
<path d="M49.8363 135.228V117.396H53.2996C55.0695 117.396 56.5847 118.242 57.8071 119.923C59.0549 121.603 59.6788 123.726 59.6788 126.292C59.6788 128.858 59.0803 130.981 57.858 132.688C56.6611 134.394 55.1714 135.241 53.376 135.241H49.8363V135.228ZM51.7844 133.443H53.376C54.5729 133.443 55.5916 132.753 56.4192 131.398C57.2468 130.044 57.667 128.311 57.667 126.253C57.667 124.195 57.2468 122.476 56.3683 121.16C55.4897 119.831 54.4711 119.167 53.2996 119.167H51.7844V133.443Z" fill="black"/>
<path d="M62.5691 135.228V117.396H70.3616V119.18H64.5045V123.179H69.8395V124.99H64.5045V133.456H70.4125V135.241H62.5691V135.228Z" fill="black"/>
<path d="M71.9788 129.34L73.9014 129.158V129.288C74.0797 132.167 75.0219 133.626 76.7408 133.626C77.4157 133.626 77.9887 133.352 78.4343 132.779C78.88 132.245 79.1092 131.529 79.1092 130.643C79.1092 128.885 78.2179 127.608 76.8936 126.879L75.4294 126.032C73.9142 125.146 72.7682 123.609 72.7682 121.577C72.7682 120.17 73.1374 119.102 73.9142 118.321C74.6399 117.526 75.6331 117.148 76.8554 117.148C78.0778 117.122 79.0455 117.578 79.7713 118.503C80.497 119.402 80.8408 120.496 80.8408 121.785L80.8154 122.046L79.02 122.254V121.929C79.02 120.965 78.8163 120.222 78.4216 119.714C78.0523 119.206 77.5303 118.946 76.8554 118.946C75.5312 118.946 74.7163 119.819 74.7163 121.551C74.7163 122.723 75.3148 123.661 76.4862 124.352L78.0269 125.263C79.9495 126.41 81.0955 128.298 81.0955 130.304C81.0955 131.854 80.7008 133.105 79.8731 134.056C79.0455 134.994 78.0269 135.463 76.7536 135.463C73.8378 135.463 72.2462 133.431 71.9915 129.38L71.9788 129.34Z" fill="black"/>
<path d="M83.8585 135.228V117.396H85.8066V135.228H83.8585Z" fill="black"/>
<path d="M88.697 126.162C88.697 122.593 89.4992 120.027 91.1162 118.412C91.9821 117.565 93.0898 117.135 94.4268 117.135C95.7765 117.109 96.846 117.617 97.6355 118.607C98.4631 119.597 99.0233 120.795 99.3544 122.202L97.4572 122.736C96.8842 120.47 96.0693 118.985 94.2994 118.985C92.5296 118.985 91.4091 120.665 90.9889 122.71C90.5942 124.742 90.6451 127.243 90.8616 128.95C91.2563 131.555 92.1858 133.561 94.2485 133.561C96.0184 133.561 97.1389 131.75 97.3171 129.38H93.6501V127.647H99.3544V128.311C99.3544 130.474 98.8833 132.18 97.9156 133.483C96.9479 134.785 95.7765 135.424 94.4013 135.424C93.0262 135.424 91.9311 134.994 91.0653 134.121C89.4737 132.519 88.6715 129.835 88.697 126.149V126.162Z" fill="black"/>
<path d="M102.041 135.228V117.396H104.104L110.228 131.06V117.396H112.151V135.228H110.088L103.964 121.564V135.228H102.041Z" fill="black"/>
</g>
</g>
<defs>
<clipPath id="clip0_313_996">
<rect width="162" height="185" fill="white"/>
</clipPath>
<clipPath id="clip1_313_996">
<rect width="162" height="185" fill="white"/>
</clipPath>
</defs>
</svg>
